Coordinates
version=1
nRows=4
nColumns=63
inDegrees=yes

Units are S.I. units (second, meters, Newtons, ...)
If the header above contains a line with 'inDegrees', this indicates whether rotational values are in degrees (yes) or radians (no).

endheader
time	pelvis_tilt	pelvis_list	pelvis_rotation	pelvis_tx	pelvis_ty	pelvis_tz	hip_flexion_r	hip_adduction_r	hip_rotation_r	knee_angle_r	knee_angle_r_beta	ankle_angle_r	subtalar_angle_r	mtp_angle_r	hip_flexion_l	hip_adduction_l	hip_rotation_l	knee_angle_l	knee_angle_l_beta	ankle_angle_l	subtalar_angle_l	mtp_angle_l	L5_S1_Flex_Ext	L5_S1_Lat_Bending	L5_S1_axial_rotation	L4_L5_Flex_Ext	L4_L5_Lat_Bending	L4_L5_axial_rotation	L3_L4_Flex_Ext	L3_L4_Lat_Bending	L3_L4_axial_rotation	L2_L3_Flex_Ext	L2_L3_Lat_Bending	L2_L3_axial_rotation	L1_L2_Flex_Ext	L1_L2_Lat_Bending	L1_L2_axial_rotation	L1_T12_Flex_Ext	L1_T12_Lat_Bending	L1_T12_axial_rotation	Abs_r3	Abs_r2	Abs_r1	Abs_t1	Abs_t2	neck_flexion	neck_bending	neck_rotation	arm_flex_r	arm_add_r	arm_rot_r	elbow_flex_r	pro_sup_r	wrist_flex_r	wrist_dev_r	arm_flex_l	arm_add_l	arm_rot_l	elbow_flex_l	pro_sup_l	wrist_flex_l	wrist_dev_l
      0.00000000	     -1.34756113	     -3.33138569	    101.76434398	      0.17271180	      1.08954388	      0.44337145	     -1.00876488	     -1.50379741	     -0.28511223	      0.97577690	      0.01703052	     18.61808674	      4.63536773	      0.00000000	      1.29401790	      0.07806198	      7.43979403	      3.52824168	      0.06157943	     10.66699644	     -0.81294973	      0.00000000	     -0.29209988	      0.07288029	     -0.55065805	     -0.54245869	      0.09693078	     -0.58507418	     -0.47989090	      0.17720113	     -0.58507418	     -0.33384096	      0.17720113	     -0.48182579	     -0.27124395	      0.14861748	     -0.44740966	     -0.16690587	      0.11289157	     -0.41299354	     -2.08644025	      0.82443640	     -3.06259487	      0.00000000	      0.00000000	     11.81722650	     -3.38404845	    -13.34967592	     11.12351397	     -7.01460247	    152.40632225	      0.91548757	      2.49155038	     -3.69558704	     -9.21500063	     13.22289655	     -4.23995979	    169.26499086	      2.17182638	      4.29514138	     -8.87268250	     -2.88197924
      0.02272727	     -0.32058092	     -3.40091622	    102.04766855	      0.17117473	      1.09050087	      0.44675857	     -0.45396367	     -0.58779814	     -0.22160210	      1.23413779	      0.02153977	     18.01209129	      3.36038735	      0.00000000	      1.94979901	     -0.78244787	      7.72172615	      3.57853269	      0.06245718	     11.41184420	     -1.26281285	      0.00000000	     -0.25444809	      0.23452774	     -0.58208690	     -0.47253554	      0.31192190	     -0.61846733	     -0.41803276	      0.57023075	     -0.61846733	     -0.29080872	      0.57023075	     -0.50932604	     -0.23628049	      0.47824897	     -0.47294561	     -0.14539164	      0.36328347	     -0.43656518	     -1.81749723	      2.65302473	     -3.23739273	      0.00000000	      0.00000000	     11.12036111	     -4.18611130	    -11.78892766	     10.90065375	     -7.92896175	    155.90052732	      0.92286262	      5.05941246	     -6.63791891	     -8.37019054	     13.16301783	     -3.48392420	    171.55443255	      1.42692535	      5.96514509	    -11.58019068	     -3.58570955
      0.04545455	     -0.11203118	     -3.66241869	    102.34200650	      0.17137032	      1.09104321	      0.44920986	      0.00264065	     -0.35891666	      3.39059837	      1.21135563	      0.02114214	     16.82483216	     -2.91725943	      0.00000000	      2.57261204	     -0.85039411	      8.55845102	      3.62463751	      0.06326186	     11.55660486	     -2.61638218	      0.00000000	     -0.23125503	      0.25375986	     -0.63695179	     -0.42946371	      0.33750062	     -0.67676128	     -0.37992889	      0.61699173	     -0.67676128	     -0.26430137	      0.61699173	     -0.55733282	     -0.21474342	      0.51746711	     -0.51752333	     -0.13213912	      0.39307403	     -0.47771385	     -1.65183155	      2.87058233	     -3.54253479	      0.00000000	      0.00000000	     10.93572255	     -3.70225375	    -10.91504233	     11.70985098	     -8.00715343	    160.14306273	      0.80465152	      4.42598856	     -9.13276762	     -8.43533681	     13.58532956	     -3.41433737	    172.89960374	      1.36172701	      5.25910414	    -13.31903552	     -3.71837937
      0.06818182	     -0.15135459	     -4.13388618	    102.44761269	      0.17293726	      1.09114066	      0.45074818	      0.69144388	     -0.43184316	      3.44490278	      1.32121644	      0.02305958	     17.02893689	     -3.21555903	      0.00000000	      3.27936874	     -0.75141672	      8.33004304	      3.65974998	      0.06387469	     11.90011603	     -2.50899243	      0.00000000	     -0.19373932	      0.21157241	     -0.63479865	     -0.35979329	      0.28139131	     -0.67447357	     -0.31829433	      0.51441717	     -0.67447357	     -0.22142467	      0.51441717	     -0.55544882	     -0.17990633	      0.43143847	     -0.51577390	     -0.11070265	      0.32772567	     -0.47609899	     -1.38386057	      2.39334947	     -3.53055966	      0.00000000	      0.00000000	     11.12609976	     -2.94205268	    -11.03024915	     13.03191039	     -7.57208040	    159.79964367	      0.67237778	      4.05492850	    -10.96494136	     -9.87198933	     14.37293450	     -3.65458449	    171.91607007	      1.71520089	      4.40693837	    -13.40413295	     -4.51890767
